<svg width="40" height="40" viewBox="0 0 40 40" fill="none" xmlns="http://www.w3.org/2000/svg">
<rect width="40" height="40" rx="8" fill="#5865F2"/>
<g clip-path="url(#clip0_174_7361)">
<path d="M27.9384 17.7214C27.8851 17.6056 27.7998 17.5075 27.6925 17.4388C27.5852 17.37 27.4605 17.3334 27.333 17.3334H20.1877L21.313 12.828C21.3487 12.6826 21.3344 12.5294 21.2724 12.3931C21.2105 12.2569 21.1044 12.1454 20.9714 12.0767C20.8383 12.008 20.686 11.9861 20.539 12.0146C20.392 12.043 20.2589 12.1201 20.161 12.2334L12.161 21.5667C12.0783 21.6635 12.0249 21.7819 12.0074 21.908C11.9898 22.0341 12.0087 22.1626 12.0618 22.2783C12.115 22.394 12.2002 22.4921 12.3073 22.5609C12.4144 22.6298 12.539 22.6665 12.6664 22.6667H19.8117L18.6864 27.172C18.6501 27.3177 18.6641 27.4713 18.7261 27.608C18.788 27.7447 18.8943 27.8566 19.0277 27.9254C19.1219 27.9747 19.2267 28.0004 19.333 28C19.4291 27.9998 19.524 27.9789 19.6112 27.9386C19.6984 27.8984 19.7759 27.8397 19.8384 27.7667L27.8384 18.4334C27.9213 18.3367 27.9748 18.2182 27.9926 18.092C28.0103 17.9658 27.9915 17.8372 27.9384 17.7214Z" fill="white"/>
</g>
<defs>
<clipPath id="clip0_174_7361">
<rect width="16" height="16" fill="white" transform="translate(12 12)"/>
</clipPath>
</defs>
</svg>
